<?xml version="1.0" encoding="UTF-8"?>
<svg width="181px" height="121px" viewBox="0 0 181 121" version="1.1" xmlns="http://www.w3.org/2000/svg" xmlns:xlink="http://www.w3.org/1999/xlink">
    <!-- Generator: Sketch 52.2 (67145) - http://www.bohemiancoding.com/sketch -->
    <title>pause_icon</title>
    <desc>Created with Sketch.</desc>
    <g id="Page-1" stroke="none" stroke-width="1" fill="none" fill-rule="evenodd">
        <g id="pause_icon" fill="#ffffff" fill-rule="nonzero">
            <path d="M177.039062,23.95625 C175.239062,13.35625 166.839062,5.55625 156.239062,4.15625 C134.239062,1.35625 112.039062,0.15625 90.0390625,0.15625 C68.0390625,0.15625 45.8390625,1.55625 23.8390625,4.15625 C13.2390625,5.55625 4.8390625,13.35625 3.0390625,23.95625 C1.0390625,35.95625 0.0390625,48.15625 0.0390625,60.15625 C0.0390625,72.15625 1.0390625,84.35625 3.0390625,96.35625 C4.8390625,106.95625 13.2390625,114.75625 23.8390625,116.15625 C45.8390625,118.95625 68.0390625,120.15625 90.0390625,120.15625 C112.039062,120.15625 134.239062,118.75625 156.239062,116.15625 C166.839062,114.75625 175.239062,106.95625 177.039062,96.35625 C179.039062,84.35625 180.039062,72.15625 180.039062,60.15625 C180.039062,48.15625 179.039062,35.95625 177.039062,23.95625 Z M102.539062,38.15625 L105.539062,38.15625 C108.024344,38.15625 110.039062,40.1709686 110.039062,42.65625 L110.039062,77.65625 C110.039062,80.1415314 108.024344,82.15625 105.539062,82.15625 L102.539062,82.15625 C100.053781,82.15625 98.0390625,80.1415314 98.0390625,77.65625 L98.0390625,42.65625 C98.0390625,40.1709686 100.053781,38.15625 102.539062,38.15625 Z M74.5390625,38.15625 L77.5390625,38.15625 C80.0243439,38.15625 82.0390625,40.1709686 82.0390625,42.65625 L82.0390625,77.65625 C82.0390625,80.1415314 80.0243439,82.15625 77.5390625,82.15625 L74.5390625,82.15625 C72.0537811,82.15625 70.0390625,80.1415314 70.0390625,77.65625 L70.0390625,42.65625 C70.0390625,40.1709686 72.0537811,38.15625 74.5390625,38.15625 Z" id="Shape"></path>
        </g>
    </g>
</svg>