<?xml version="1.0" encoding="UTF-8"?>
<svg width="181px" height="121px" viewBox="0 0 181 121" version="1.1" xmlns="http://www.w3.org/2000/svg" xmlns:xlink="http://www.w3.org/1999/xlink">
    <!-- Generator: Sketch 52.2 (67145) - http://www.bohemiancoding.com/sketch -->
    <title>play_icon</title>
    <desc>Created with Sketch.</desc>
    <g id="Page-1" stroke="none" stroke-width="1" fill="none" fill-rule="evenodd">
        <g id="play_icon" fill="#FFFFFF" fill-rule="nonzero">
            <path d="M177.039062,23.95625 C175.239062,13.35625 166.839062,5.55625 156.239062,4.15625 C134.239062,1.35625 112.039062,0.15625 90.0390625,0.15625 C68.0390625,0.15625 45.8390625,1.55625 23.8390625,4.15625 C13.2390625,5.55625 4.8390625,13.35625 3.0390625,23.95625 C1.0390625,35.95625 0.0390625,48.15625 0.0390625,60.15625 C0.0390625,72.15625 1.0390625,84.35625 3.0390625,96.35625 C4.8390625,106.95625 13.2390625,114.75625 23.8390625,116.15625 C45.8390625,118.95625 68.0390625,120.15625 90.0390625,120.15625 C112.039062,120.15625 134.239062,118.75625 156.239062,116.15625 C166.839062,114.75625 175.239062,106.95625 177.039062,96.35625 C179.039062,84.35625 180.039062,72.15625 180.039062,60.15625 C180.039062,48.15625 179.039062,35.95625 177.039062,23.95625 Z M107.239062,67.15625 C104.439062,70.15625 101.039062,72.95625 97.2390625,75.55625 C93.6390625,77.95625 89.6390625,80.15625 85.6390625,81.75625 C84.4390625,82.35625 83.0390625,82.55625 81.8390625,82.55625 C77.8390625,82.55625 74.2390625,80.15625 72.6390625,76.35625 C72.4390625,75.95625 72.4390625,75.55625 72.2390625,75.15625 C70.8390625,70.15625 70.2390625,65.15625 70.2390625,60.15625 C70.2390625,55.15625 70.8390625,50.15625 72.2390625,45.15625 C73.0390625,42.55625 74.6390625,40.35625 77.0390625,39.15625 C79.4390625,37.75625 82.0390625,37.55625 84.6390625,38.15625 C85.0390625,38.35625 85.4390625,38.35625 85.8390625,38.55625 C90.2390625,40.35625 94.0390625,42.35625 97.4390625,44.75625 C101.039062,47.15625 104.439062,49.95625 107.439062,53.15625 C111.039062,57.15625 111.039062,63.35625 107.239062,67.15625 Z" id="Shape"></path>
        </g>
    </g>
</svg>